<svg width="960" height="540" viewBox="0 0 960 540" xmlns="http://www.w3.org/2000/svg">
  <defs>
    <linearGradient id="bg1" x1="0" y1="0" x2="1" y2="1">
      <stop offset="0%" stop-color="#17121a"/>
      <stop offset="100%" stop-color="#07070a"/>
    </linearGradient>
    <linearGradient id="slash1" x1="0" y1="0" x2="1" y2="1">
      <stop offset="0%" stop-color="#ff2b2b"/>
      <stop offset="100%" stop-color="#3a0000"/>
    </linearGradient>
  </defs>

  <rect width="960" height="540" fill="url(#bg1)"/>
  <polygon points="640,0 960,0 960,540 420,540" fill="url(#slash1)" opacity="0.9"/>
  <polygon points="610,0 660,0 440,540 390,540" fill="#ff0000" opacity="0.45"/>

  <g stroke="rgba(255,0,0,0.65)" stroke-width="3" fill="none">
    <polyline points="26,64 26,26 64,26"/>
    <polyline points="896,26 934,26 934,64"/>
    <polyline points="26,476 26,514 64,514"/>
    <polyline points="896,514 934,514 934,476"/>
  </g>

  <text x="64" y="212" font-family="Arial, Helvetica, sans-serif" font-size="20" letter-spacing="7" fill="#ff5050" font-weight="700">DUYURU</text>
  <text x="62" y="300" font-family="Arial, Helvetica, sans-serif" font-size="72" font-weight="900" fill="#eeece5" letter-spacing="1">YENİ SEZON</text>
  <text x="62" y="370" font-family="Arial, Helvetica, sans-serif" font-size="72" font-weight="900" fill="#eeece5" letter-spacing="1">BAŞLADI</text>
  <rect x="64" y="396" width="72" height="4" fill="#ff0000"/>
  <text x="64" y="440" font-family="Arial, Helvetica, sans-serif" font-size="23" fill="#c7c9cf">Sezon 3 içerikleri şimdi aktif — hemen katıl</text>
</svg>
